<?xml version="1.0" encoding="utf-8"?>
<!-- Generator: Adobe Illustrator 20.1.0, SVG Export Plug-In . SVG Version: 6.00 Build 0)  -->
<svg version="1.1" id="Layer_1" xmlns="http://www.w3.org/2000/svg" xmlns:xlink="http://www.w3.org/1999/xlink" x="0px" y="0px"
	 viewBox="0 0 13.5 14" enable-background="new 0 0 13.5 14" xml:space="preserve">
<path fill="#00417F" stroke="#000000" stroke-width="1.945502e-02" stroke-miterlimit="10" d="M58.7-12c-0.3,0.6-0.7,1.1-1.1,1.5
	c-0.5,0.6-0.9,1.2-1.4,1.8c-0.3,0.4-0.6,0.7-0.8,1.1c-0.3,0.4-0.6,0.8-0.9,1.2c-1.2,1.6-2.4,3.2-3.5,4.9c-0.6,0.9-1.3,1.8-1.9,2.8
	c-0.2,0.3-0.5,0.4-0.9,0.5c-0.1,0-0.2,0-0.4,0c-0.1,0-0.1,0-0.2,0c-0.2,0-0.3,0-0.5-0.1c-0.1,0-0.2,0-0.3,0c-0.1,0-0.2-0.1-0.3-0.2
	c-0.3-0.5-0.5-1-0.7-1.6c-0.2-0.7-0.4-1.4-0.6-2.2c0-0.1-0.1-0.2-0.1-0.4c0-0.2,0.1-0.4,0.3-0.6c0.3-0.3,0.7-0.5,1.2-0.6
	c0.2,0,0.3,0,0.5,0c0.1,0,0.2,0.1,0.3,0.2c0.1,0.2,0.2,0.4,0.3,0.6C48-2.6,48.1-2.3,48.2-2c0.1,0.1,0.2,0.3,0.3,0.4
	c0.1,0.1,0.2,0.1,0.3,0c0.2-0.3,0.4-0.5,0.6-0.8c0.3-0.4,0.5-0.8,0.8-1.2C50.4-4,50.7-4.5,51-4.9c1.3-1.8,2.6-3.6,3.9-5.3
	c0.2-0.2,0.4-0.4,0.5-0.6c0.2-0.4,0.6-0.6,1-0.8c0.3-0.2,0.7-0.4,1.1-0.4c0.3,0,0.5,0,0.8-0.1c0.1,0,0.2,0,0.2,0
	C58.6-12.1,58.7-12.1,58.7-12C58.7-12,58.7-12,58.7-12z"/>
<polyline fill="none" stroke="#00417F" stroke-width="1.865" stroke-linecap="round" stroke-linejoin="round" stroke-miterlimit="10" points="
	2.5,8.5 5.7,11.6 11.1,2.7 "/>
</svg>
